<svg width="20" height="20" viewBox="0 0 20 20" fill="none" xmlns="http://www.w3.org/2000/svg">
<g id="interface-security-shield-3--shield-pay-product-secure-money-cash-currency-security-business--Streamline-Core" clip-path="url(#clip0_436_24721)">
<g id="Group">
<path id="Vector" d="M18.4549 9.91583C18.4417 11.3829 18.0226 12.8177 17.2441 14.0613C16.4656 15.3049 15.3581 16.3088 14.0442 16.9616L9.99991 19.1599L5.95561 17.0462C4.62891 16.3869 3.51291 15.3699 2.73354 14.1099C1.95418 12.85 1.54249 11.3973 1.54493 9.91583V2.24998C1.54493 1.87625 1.6934 1.51782 1.95767 1.25355C2.22194 0.989285 2.58036 0.84082 2.95409 0.84082H17.0457C17.4195 0.84082 17.7779 0.989285 18.0421 1.25355C18.3064 1.51782 18.4549 1.87625 18.4549 2.24998V9.91583Z" stroke="black" stroke-width="1.6" stroke-linecap="round" stroke-linejoin="round"/>
<path id="Vector_2" d="M7.85809 11.4282C7.85809 11.9965 8.12554 12.5416 8.60159 12.9435C9.07765 13.3453 9.72332 13.5711 10.3966 13.5711C10.7364 13.5924 11.0777 13.5516 11.3971 13.4515C11.7166 13.3513 12.0067 13.1942 12.2476 12.9908C12.4886 12.7874 12.6747 12.5425 12.7934 12.2728C12.912 12.0032 12.9603 11.7151 12.935 11.4282C12.935 9.28537 7.85809 9.28537 7.85809 7.14251C7.83281 6.85564 7.88114 6.56755 7.99977 6.29789C8.1184 6.02822 8.30454 5.78333 8.5455 5.57993C8.78645 5.37652 9.07656 5.21939 9.39601 5.11925C9.71545 5.0191 10.0567 4.97831 10.3966 4.99965C11.0698 4.99965 11.7155 5.22542 12.1915 5.62728C12.6676 6.02914 12.935 6.57419 12.935 7.14251" stroke="black" stroke-width="1.6" stroke-linecap="round" stroke-linejoin="round"/>
<path id="Vector_3" d="M10 4.99986V3.57129" stroke="black" stroke-width="1.6" stroke-linecap="round" stroke-linejoin="round"/>
<path id="Vector_4" d="M10 14.9999V13.5713" stroke="black" stroke-width="1.6" stroke-linecap="round" stroke-linejoin="round"/>
</g>
</g>
<defs>
<clipPath id="clip0_436_24721">
<rect width="20" height="20" fill="white"/>
</clipPath>
</defs>
</svg>
