<svg width="21" height="20" viewBox="0 0 21 20" fill="none" xmlns="http://www.w3.org/2000/svg">
<g id="interface-id-user--identification-angle-secure-human-id-person-face-silhouette-security-brackets--Streamline-Core" clip-path="url(#clip0_436_24712)">
<g id="Group">
<path id="Vector" d="M19.8062 14.9011V17.7016C19.8062 18.0729 19.6586 18.4291 19.396 18.6917C19.1334 18.9543 18.7773 19.1018 18.4059 19.1018H15.6055" stroke="black" stroke-width="1.6" stroke-linecap="round" stroke-linejoin="round"/>
<path id="Vector_2" d="M15.6055 0.898438H18.4059C18.7773 0.898438 19.1334 1.04596 19.396 1.30856C19.6586 1.57115 19.8062 1.9273 19.8062 2.29867V5.09913" stroke="black" stroke-width="1.6" stroke-linecap="round" stroke-linejoin="round"/>
<path id="Vector_3" d="M1.60352 5.09913V2.29867C1.60352 1.9273 1.75104 1.57115 2.01363 1.30856C2.27623 1.04596 2.63238 0.898438 3.00375 0.898438H5.8042" stroke="black" stroke-width="1.6" stroke-linecap="round" stroke-linejoin="round"/>
<path id="Vector_4" d="M5.8042 19.1018H3.00375C2.63238 19.1018 2.27623 18.9543 2.01363 18.6917C1.75104 18.4291 1.60352 18.0729 1.60352 17.7016V14.9011" stroke="black" stroke-width="1.6" stroke-linecap="round" stroke-linejoin="round"/>
<path id="Vector_5" d="M10.7048 9.30014C12.2514 9.30014 13.5052 8.04633 13.5052 6.49968C13.5052 4.95303 12.2514 3.69922 10.7048 3.69922C9.15811 3.69922 7.9043 4.95303 7.9043 6.49968C7.9043 8.04633 9.15811 9.30014 10.7048 9.30014Z" stroke="black" stroke-width="1.6" stroke-linecap="round" stroke-linejoin="round"/>
<path id="Vector_6" d="M15.1297 14.9012C14.7315 14.065 14.1046 13.3588 13.3214 12.8643C12.5383 12.3699 11.6311 12.1074 10.705 12.1074C9.77885 12.1074 8.87166 12.3699 8.08855 12.8643C7.30544 13.3588 6.67846 14.065 6.28027 14.9012" stroke="black" stroke-width="1.6" stroke-linecap="round" stroke-linejoin="round"/>
</g>
</g>
<defs>
<clipPath id="clip0_436_24712">
<rect width="20" height="20" fill="white" transform="translate(0.705078)"/>
</clipPath>
</defs>
</svg>
