<svg width="21" height="21" viewBox="0 0 21 21" fill="none" xmlns="http://www.w3.org/2000/svg">
<g id="mail-chat-bubble-typing-oval--messages-message-bubble-typing-chat--Streamline-Core" clip-path="url(#clip0_506_26020)">
<g id="Group">
<path id="Vector" d="M10.705 1.21875C9.09896 1.21925 7.52311 1.65537 6.14531 2.48066C4.76751 3.30595 3.63936 4.48949 2.88103 5.90525C2.12269 7.321 1.76256 8.91593 1.839 10.5202C1.91543 12.1244 2.42558 13.6779 3.31509 15.0151L1.82617 18.9764L6.81199 18.0749C8.01255 18.6616 9.33006 18.9697 10.6663 18.9763C12.0025 18.983 13.323 18.6879 14.5293 18.1131C15.7357 17.5384 16.7967 16.6987 17.6333 15.6568C18.47 14.6149 19.0607 13.3976 19.3614 12.0956C19.6621 10.7937 19.665 9.4406 19.37 8.13732C19.075 6.83405 18.4896 5.61417 17.6575 4.56862C16.8254 3.52308 15.7681 2.67883 14.5643 2.09881C13.3605 1.51879 12.0413 1.21796 10.705 1.21875V1.21875Z" stroke="#000001" stroke-width="1.6" stroke-linecap="round" stroke-linejoin="round"/>
</g>
<path id="Vector_2" d="M11.6658 8.11194C11.6658 7.32542 11.1732 6.85669 10.339 6.85669C9.85442 6.85669 9.43336 6.99969 9.03613 7.29364C8.70245 7.53992 8.25755 7.53992 7.95566 7.26186C7.59815 6.92819 7.5902 6.34028 7.97154 6.03839C8.68656 5.46637 9.56047 5.12476 10.5694 5.12476C12.3967 5.12476 13.7235 6.07017 13.7235 7.92921C13.7235 9.89153 11.6102 10.3126 11.3003 11.838C11.2209 12.2193 10.8554 12.4656 10.4662 12.4656H10.2517C9.72731 12.4656 9.31419 11.981 9.4413 11.4805C9.83059 9.91537 11.6658 9.33541 11.6658 8.11194ZM10.339 13.1329C10.9269 13.1329 11.3639 13.5302 11.3639 14.0942C11.3639 14.6583 10.9269 15.0714 10.339 15.0714C9.75114 15.0714 9.31419 14.6663 9.31419 14.0942C9.31419 13.5222 9.75114 13.1329 10.339 13.1329Z" fill="black"/>
</g>
<defs>
<clipPath id="clip0_506_26020">
<rect width="20" height="20" fill="white" transform="translate(0.705078 0.0986328)"/>
</clipPath>
</defs>
</svg>
