<svg width="20" height="20" viewBox="0 0 20 20" fill="none" xmlns="http://www.w3.org/2000/svg">
<g clip-path="url(#clip0_436_24554)">
<path d="M16.9812 10.6986V7.90606C16.9812 7.53574 16.8341 7.18059 16.5722 6.91873C16.3104 6.65687 15.9552 6.50977 15.5849 6.50977H2.32012C1.9498 6.50977 1.59465 6.65687 1.33279 6.91873C1.07094 7.18059 0.923828 7.53574 0.923828 7.90606V17.6801C0.923828 18.0504 1.07094 18.4056 1.33279 18.6674C1.59465 18.9293 1.9498 19.0764 2.32012 19.0764H15.5849C15.9552 19.0764 16.3104 18.9293 16.5722 18.6674C16.8341 18.4056 16.9812 18.0504 16.9812 17.6801V14.1894" stroke="black" stroke-width="1.6" stroke-linecap="round" stroke-linejoin="round"/>
<path d="M5.58789 3.01891L13.5049 0.952398C13.5938 0.927332 13.6869 0.920552 13.7786 0.932466C13.8703 0.944379 13.9586 0.974741 14.0382 1.02172C14.1178 1.06869 14.187 1.13131 14.2417 1.20579C14.2965 1.28027 14.3355 1.36507 14.3566 1.45506L14.7476 3.01891" stroke="black" stroke-width="1.6" stroke-linecap="round" stroke-linejoin="round"/>
<path d="M18.3774 10.6973H14.8866C14.501 10.6973 14.1885 11.0098 14.1885 11.3954V13.4898C14.1885 13.8754 14.501 14.188 14.8866 14.188H18.3774C18.7629 14.188 19.0755 13.8754 19.0755 13.4898V11.3954C19.0755 11.0098 18.7629 10.6973 18.3774 10.6973Z" stroke="black" stroke-width="1.6" stroke-linecap="round" stroke-linejoin="round"/>
</g>
<defs>
<clipPath id="clip0_436_24554">
<rect width="20" height="20" fill="white"/>
</clipPath>
</defs>
</svg>
