<svg width="20" height="20" viewBox="0 0 20 20" fill="none" xmlns="http://www.w3.org/2000/svg">
<g id="interface-logout-circle--arrow-enter-right-logout-point-circle--Streamline-Core">
<g id="Group">
<path id="Vector" d="M9.30859 10.0029H19.0287" stroke="black" stroke-width="1.6" stroke-linecap="round" stroke-linejoin="round"/>
<path id="Vector_2" d="M16.251 7.22461L19.0282 10.0018L16.251 12.779" stroke="black" stroke-width="1.6" stroke-linecap="round" stroke-linejoin="round"/>
<path id="Vector_3" d="M16.5292 16.2374C15.2823 17.5371 13.6751 18.434 11.9143 18.8128C10.1535 19.1915 8.31963 19.0349 6.6486 18.3629C4.97758 17.6909 3.5458 16.5344 2.53744 15.042C1.52907 13.5497 0.990234 11.7898 0.990234 9.98875C0.990234 8.18768 1.52907 6.42779 2.53744 4.93545C3.5458 3.44312 4.97758 2.28659 6.6486 1.61462C8.31963 0.942649 10.1535 0.785975 11.9143 1.16475C13.6751 1.54352 15.2823 2.44042 16.5292 3.74008" stroke="black" stroke-width="1.6" stroke-linecap="round" stroke-linejoin="round"/>
</g>
</g>
</svg>
