<svg width="25" height="25" viewBox="0 0 25 25" fill="none" xmlns="http://www.w3.org/2000/svg">
<g clip-path="url(#clip0_269_4196)">
<ellipse cx="12.583" cy="12.6152" rx="12" ry="12" fill="#F7F8FA"/>
<path d="M11.3714 13.0097C12.1229 13.4434 12.4986 13.6603 12.9113 13.6606C13.3239 13.661 13.7 13.4448 14.4522 13.0124L19.2473 10.2561C19.4637 10.1316 19.5972 9.901 19.5972 9.65131C19.5972 9.40162 19.4637 9.17098 19.2473 9.04655L14.4505 6.28923C13.6991 5.85729 13.3234 5.64132 12.9111 5.64148C12.4989 5.64164 12.1234 5.8579 11.3723 6.29042L7.24866 8.66507C7.21809 8.68267 7.20282 8.69149 7.18857 8.69982C5.77998 9.52441 4.9097 11.0298 4.89807 12.662C4.89795 12.6785 4.89795 12.6961 4.89795 12.7314C4.89795 12.7666 4.89795 12.7842 4.89807 12.8007C4.90968 14.431 5.77801 15.9351 7.18409 16.7603C7.1983 16.7686 7.21357 16.7774 7.24407 16.7951L9.8271 18.2864C11.3322 19.1554 12.0848 19.5899 12.9112 19.5902C13.7376 19.5905 14.4905 19.1565 15.9962 18.2885L18.7229 16.7166C19.4768 16.282 19.8538 16.0647 20.0608 15.7064C20.2678 15.3482 20.2678 14.9131 20.2678 14.0428V12.3617C20.2678 12.1203 20.1371 11.8978 19.9261 11.7803C19.722 11.6666 19.4733 11.6683 19.2707 11.7847L13.6795 14.9987C13.3044 15.2144 13.1168 15.3222 12.911 15.3223C12.7052 15.3223 12.5175 15.2146 12.1423 14.9992L8.35803 12.827C8.16847 12.7181 8.07369 12.6637 7.99756 12.6539C7.824 12.6315 7.65711 12.7287 7.591 12.8908C7.56201 12.9618 7.56259 13.0711 7.56377 13.2897C7.56463 13.4506 7.56506 13.531 7.5801 13.6051C7.61379 13.7708 7.70097 13.9208 7.82827 14.0322C7.88512 14.0819 7.95479 14.1221 8.09417 14.2025L12.1401 16.5377C12.5164 16.7549 12.7045 16.8634 12.9111 16.8635C13.1176 16.8636 13.3058 16.7551 13.6822 16.5382L18.6413 13.6795C18.7699 13.6054 18.8342 13.5683 18.8824 13.5962C18.9306 13.624 18.9306 13.6982 18.9306 13.8466V14.6091C18.9306 14.8267 18.9306 14.9355 18.8788 15.025C18.8271 15.1146 18.7328 15.1689 18.5443 15.2776L14.454 17.6354C13.7009 18.0695 13.3244 18.2865 12.9112 18.2863C12.4978 18.2861 12.1215 18.0688 11.3689 17.634L7.54203 15.4234C7.52988 15.4163 7.5238 15.4128 7.51814 15.4095C6.71574 14.9407 6.22063 14.0829 6.21599 13.1535C6.21596 13.147 6.21596 13.14 6.21596 13.1259V12.426C6.21596 11.9129 6.4892 11.4387 6.93306 11.1814C7.32527 10.9541 7.80906 10.9536 8.20169 11.1802L11.3714 13.0097Z" fill="#BBBCC0"/>
</g>
<defs>
<clipPath id="clip0_269_4196">
<rect width="24" height="24" fill="white" transform="translate(0.583008 0.615234)"/>
</clipPath>
</defs>
</svg>
