<svg width="25" height="25" viewBox="0 0 25 25" fill="none" xmlns="http://www.w3.org/2000/svg">
<path d="M24.583 12.6152C24.583 19.2426 19.2104 24.6152 12.583 24.6152C5.95559 24.6152 0.583008 19.2426 0.583008 12.6152C0.583008 5.98781 5.95559 0.615234 12.583 0.615234C19.2104 0.615234 24.583 5.98781 24.583 12.6152Z" fill="#F7F8FA"/>
<path d="M13.5439 12.6152C13.5439 14.9676 11.6499 16.8747 9.31338 16.8747C6.9769 16.8747 5.08301 14.9682 5.08301 12.6152C5.08301 10.2622 6.97704 8.35583 9.31338 8.35583C11.6497 8.35583 13.5439 10.2628 13.5439 12.6152ZM18.1848 12.6152C18.1848 14.8297 17.2377 16.6248 16.0696 16.6248C14.9014 16.6248 13.9543 14.8292 13.9543 12.6152C13.9543 10.4013 14.9014 8.60564 16.0696 8.60564C17.2377 8.60564 18.1848 10.4013 18.1848 12.6152ZM20.083 12.6152C20.083 14.5993 19.7499 16.2076 19.339 16.2076C18.9282 16.2076 18.5951 14.5987 18.5951 12.6152C18.5951 10.6317 18.9282 9.0228 19.3392 9.0228C19.7502 9.0228 20.083 10.6313 20.083 12.6152Z" fill="#BBBCC0"/>
</svg>
