<svg width="25" height="25" viewBox="0 0 25 25" fill="none" xmlns="http://www.w3.org/2000/svg">
<circle cx="12.583" cy="12.6152" r="12" fill="#F7F8FA"/>
<path fill-rule="evenodd" clip-rule="evenodd" d="M12.9874 9.23913C11.9222 9.68218 9.79334 10.5992 6.6008 11.9901C6.08238 12.1963 5.81081 12.3979 5.78608 12.5952C5.7443 12.9284 6.16166 13.0597 6.73 13.2384C6.80731 13.2627 6.88741 13.2879 6.96953 13.3146C7.52869 13.4963 8.28086 13.709 8.67188 13.7174C9.02657 13.7251 9.42245 13.5789 9.85951 13.2787C12.8424 11.2652 14.3822 10.2475 14.4789 10.2255C14.5471 10.21 14.6416 10.1906 14.7056 10.2475C14.7696 10.3044 14.7633 10.4122 14.7566 10.4411C14.7152 10.6174 13.0769 12.1405 12.2291 12.9287C11.9648 13.1744 11.7773 13.3487 11.739 13.3885C11.6531 13.4777 11.5656 13.562 11.4815 13.6431C10.9621 14.1439 10.5725 14.5194 11.5031 15.1327C11.9503 15.4274 12.3082 15.6711 12.6652 15.9142C13.0551 16.1797 13.4439 16.4445 13.9471 16.7743C14.0753 16.8584 14.1977 16.9457 14.3169 17.0307C14.7707 17.3541 15.1783 17.6448 15.6819 17.5984C15.9746 17.5715 16.2769 17.2963 16.4304 16.4756C16.7932 14.5361 17.5063 10.3338 17.6711 8.60217C17.6855 8.45045 17.6674 8.25628 17.6528 8.17105C17.6382 8.08581 17.6077 7.96437 17.4969 7.87447C17.3657 7.768 17.1632 7.74555 17.0726 7.74715C16.6607 7.7544 16.0287 7.97414 12.9874 9.23913Z" fill="#BBBCC0"/>
</svg>
