<svg width="25" height="25" viewBox="0 0 25 25" fill="none" xmlns="http://www.w3.org/2000/svg">
<g clip-path="url(#clip0_269_4203)">
<path d="M24.583 12.6152C24.583 19.2426 19.2104 24.6152 12.583 24.6152C5.95559 24.6152 0.583008 19.2426 0.583008 12.6152C0.583008 5.98781 5.95559 0.615234 12.583 0.615234C19.2104 0.615234 24.583 5.98781 24.583 12.6152Z" fill="#F7F8FA"/>
<path fill-rule="evenodd" clip-rule="evenodd" d="M18.427 7.67636C19.0721 7.84965 19.5824 8.35993 19.7557 9.00498C20.0734 10.1796 20.083 12.6154 20.083 12.6154C20.083 12.6154 20.083 15.0608 19.7653 16.2258C19.592 16.8708 19.0817 17.3811 18.4367 17.5544C17.2717 17.8721 12.583 17.8721 12.583 17.8721C12.583 17.8721 7.8943 17.8721 6.72935 17.5544C6.08429 17.3811 5.57402 16.8708 5.40072 16.2258C5.08301 15.0512 5.08301 12.6154 5.08301 12.6154C5.08301 12.6154 5.08301 10.1796 5.39109 9.01461C5.56439 8.36955 6.07466 7.85929 6.71972 7.68599C7.88468 7.36827 12.5734 7.35864 12.5734 7.35864C12.5734 7.35864 17.2621 7.35864 18.427 7.67636ZM14.9707 12.6154L11.0811 14.8683V10.3625L14.9707 12.6154Z" fill="#BBBCC0"/>
</g>
<defs>
<clipPath id="clip0_269_4203">
<rect width="24" height="24" fill="white" transform="translate(0.583008 0.615234)"/>
</clipPath>
</defs>
</svg>
