<svg width="21" height="21" viewBox="0 0 21 21" fill="none" xmlns="http://www.w3.org/2000/svg">
<g clip-path="url(#clip0_422_3759)">
<path d="M17.3268 20.0696H3.1734C2.79803 20.0696 2.43803 19.9205 2.1726 19.6551C1.90717 19.3896 1.75806 19.0296 1.75806 18.6543V3.08551C1.75806 2.71014 1.90717 2.35014 2.1726 2.08471C2.43803 1.81928 2.79803 1.67017 3.1734 1.67017H17.3268C17.7022 1.67017 18.0622 1.81928 18.3276 2.08471C18.593 2.35014 18.7422 2.71014 18.7422 3.08551V18.6543C18.7422 19.0296 18.593 19.3896 18.3276 19.6551C18.0622 19.9205 17.7022 20.0696 17.3268 20.0696Z" stroke="black" stroke-width="1.6" stroke-linecap="round" stroke-linejoin="round"/>
<path d="M5.96436 1.58374V20.1552" stroke="black" stroke-width="1.6" stroke-linecap="round" stroke-linejoin="round"/>
<path d="M10.9636 6.58447H13.8208" stroke="black" stroke-width="1.6" stroke-linecap="round" stroke-linejoin="round"/>
</g>
<defs>
<clipPath id="clip0_422_3759">
<rect width="20" height="20" fill="white" transform="translate(0.25 0.870117)"/>
</clipPath>
</defs>
</svg>
