<svg width="15" height="15" viewBox="0 0 15 15" fill="none" xmlns="http://www.w3.org/2000/svg">
<g clip-path="url(#clip0_485_25079)">
<path d="M7.28906 14.244C10.8789 14.244 13.7891 11.3339 13.7891 7.74402C13.7891 4.15417 10.8789 1.24402 7.28906 1.24402C3.69921 1.24402 0.789062 4.15417 0.789062 7.74402C0.789062 11.3339 3.69921 14.244 7.28906 14.244Z" stroke="black" stroke-linecap="round" stroke-linejoin="round"/>
<path d="M5.78906 6.24402C5.78906 5.94735 5.87704 5.65734 6.04186 5.41066C6.20668 5.16399 6.44095 4.97173 6.71504 4.8582C6.98913 4.74467 7.29073 4.71496 7.5817 4.77284C7.87267 4.83072 8.13994 4.97358 8.34972 5.18336C8.5595 5.39314 8.70236 5.66041 8.76024 5.95138C8.81812 6.24236 8.78841 6.54396 8.67488 6.81804C8.56135 7.09213 8.36909 7.3264 8.12242 7.49122C7.87574 7.65605 7.58573 7.74402 7.28906 7.74402V8.74402" stroke="black" stroke-linecap="round" stroke-linejoin="round"/>
<path d="M7.28906 11.244C7.15099 11.244 7.03906 11.1321 7.03906 10.994C7.03906 10.8559 7.15099 10.744 7.28906 10.744" stroke="black" stroke-linecap="round" stroke-linejoin="round"/>
<path d="M7.28906 11.244C7.42713 11.244 7.53906 11.1321 7.53906 10.994C7.53906 10.8559 7.42713 10.744 7.28906 10.744" stroke="black" stroke-linecap="round" stroke-linejoin="round"/>
</g>
<defs>
<clipPath id="clip0_485_25079">
<rect width="14" height="14" fill="white" transform="translate(0.289062 0.744019)"/>
</clipPath>
</defs>
</svg>
