<svg width="17" height="17" viewBox="0 0 17 17" fill="none" xmlns="http://www.w3.org/2000/svg">
<path d="M14.8965 13.3164H9.89648M8.89648 4.8473L2.89648 10.4934V13.3164L5.89648 13.3164L11.8965 7.67032M8.89648 4.8473L11.048 2.82272L11.0492 2.82152C11.3454 2.54283 11.4938 2.40323 11.6648 2.35095C11.8154 2.30489 11.9777 2.30489 12.1283 2.35095C12.2992 2.4032 12.4474 2.54263 12.7431 2.82093L14.0479 4.0488C14.345 4.3283 14.4935 4.46811 14.5492 4.62925C14.5981 4.771 14.5981 4.92369 14.5492 5.06543C14.4935 5.22646 14.3445 5.36666 14.048 5.64576L11.8965 7.67032M8.89648 4.8473L11.8965 7.67032" stroke="#717277" stroke-width="1.6" stroke-linecap="round" stroke-linejoin="round"/>
</svg>
