<svg width="53" height="53" viewBox="0 0 53 53" fill="none" xmlns="http://www.w3.org/2000/svg">
<path d="M50.3926 18.6914C50.3926 17.7064 50.0013 16.7616 49.3048 16.065C48.6082 15.3685 47.6635 14.9772 46.6784 14.9772H39.2498L33.6784 7.54858H18.8212L13.2498 14.9772H5.82122C4.83613 14.9772 3.89139 15.3685 3.19482 16.065C2.49826 16.7616 2.10693 17.7064 2.10693 18.6914V40.9772C2.10693 41.9622 2.49826 42.907 3.19482 43.6036C3.89139 44.3001 4.83613 44.6914 5.82122 44.6914H46.6784C47.6635 44.6914 48.6082 44.3001 49.3048 43.6036C50.0013 42.907 50.3926 41.9622 50.3926 40.9772V18.6914Z" stroke="white" stroke-width="2" stroke-linecap="round" stroke-linejoin="round"/>
<path d="M26.2502 36.3342C30.8657 36.3342 34.6074 32.5925 34.6074 27.977C34.6074 23.3615 30.8657 19.6199 26.2502 19.6199C21.6347 19.6199 17.8931 23.3615 17.8931 27.977C17.8931 32.5925 21.6347 36.3342 26.2502 36.3342Z" stroke="white" stroke-width="2" stroke-linecap="round" stroke-linejoin="round"/>
</svg>
