<svg width="28" height="28" viewBox="0 0 28 28" fill="none" xmlns="http://www.w3.org/2000/svg">
<circle cx="14" cy="14" r="12" stroke="black" stroke-width="2" stroke-linejoin="round"/>
<path d="M14.8234 18.64C15.5034 18.3734 15.8434 17.82 15.8434 16.98C15.8434 16.6867 15.77 16.4267 15.6234 16.2C15.4767 15.9734 15.21 15.7867 14.8234 15.64V18.64ZM13.5034 9.74003C13.1967 9.86003 12.95 10.0467 12.7634 10.3C12.59 10.5534 12.5034 10.8534 12.5034 11.2C12.5034 11.52 12.57 11.8 12.7034 12.04C12.85 12.2667 13.1167 12.4534 13.5034 12.6V9.74003ZM9.52337 19.74C9.40337 19.6467 9.39004 19.5467 9.48337 19.44L10.8434 17.76C10.9367 17.6534 11.0234 17.64 11.1034 17.72C11.3967 17.96 11.75 18.1867 12.1634 18.4C12.5767 18.6 13.0234 18.7267 13.5034 18.78V15.36C12.33 15.1734 11.41 14.74 10.7434 14.06C10.0767 13.38 9.74337 12.5 9.74337 11.42C9.74337 10.86 9.83004 10.34 10.0034 9.86003C10.19 9.38003 10.45 8.96003 10.7834 8.60003C11.1167 8.22669 11.51 7.92003 11.9634 7.68003C12.43 7.44003 12.9434 7.28669 13.5034 7.22003V6.04003C13.5034 5.90669 13.57 5.84003 13.7034 5.84003H14.6234C14.7567 5.84003 14.8234 5.90669 14.8234 6.04003V7.22003C15.4634 7.27336 16.05 7.40003 16.5834 7.60003C17.1167 7.80003 17.59 8.03336 18.0034 8.30003C18.11 8.38003 18.1234 8.48003 18.0434 8.60003L16.8834 10.28C16.8034 10.3867 16.71 10.4067 16.6034 10.34C16.3234 10.1667 16.03 10.02 15.7234 9.90003C15.43 9.78003 15.13 9.69336 14.8234 9.64003V12.86C16.09 13.06 17.0367 13.5067 17.6634 14.2C18.29 14.88 18.6034 15.76 18.6034 16.84C18.6034 18.0134 18.2634 18.98 17.5834 19.74C16.9167 20.5 15.9967 20.9667 14.8234 21.14V22.36C14.8234 22.4934 14.7567 22.56 14.6234 22.56H13.7034C13.57 22.56 13.5034 22.4934 13.5034 22.36V21.2C12.7034 21.16 11.9634 21.0067 11.2834 20.74C10.6167 20.4734 10.03 20.14 9.52337 19.74Z" fill="black"/>
</svg>
