<svg width="23" height="23" viewBox="0 0 23 23" fill="none" xmlns="http://www.w3.org/2000/svg">
<g clip-path="url(#clip0_198_2145)">
<path d="M6.78548 11.0833L1.74119 16.0804C1.59391 16.2265 1.477 16.4003 1.39722 16.5918C1.31744 16.7833 1.27637 16.9887 1.27637 17.1961C1.27637 17.4036 1.31744 17.609 1.39722 17.8004C1.477 17.9919 1.59391 18.1657 1.74119 18.3118L5.07262 21.6433C5.21871 21.7905 5.39251 21.9074 5.584 21.9872C5.77549 22.067 5.98089 22.1081 6.18834 22.1081C6.39578 22.1081 6.60118 22.067 6.79267 21.9872C6.98416 21.9074 7.15797 21.7905 7.30405 21.6433L12.3012 16.599" stroke="white" stroke-width="1.5" stroke-linecap="round" stroke-linejoin="round"/>
<path d="M16.214 12.686L21.2111 7.68882C21.3584 7.54273 21.4753 7.36893 21.5551 7.17744C21.6349 6.98594 21.6759 6.78055 21.6759 6.5731C21.6759 6.36565 21.6349 6.16026 21.5551 5.96877C21.4753 5.77727 21.3584 5.60347 21.2111 5.45739L17.9268 2.12596C17.7807 1.97867 17.6069 1.86177 17.4154 1.78199C17.2239 1.70221 17.0185 1.66113 16.8111 1.66113C16.6037 1.66113 16.3983 1.70221 16.2068 1.78199C16.0153 1.86177 15.8415 1.97867 15.6954 2.12596L10.6982 7.17024" stroke="white" stroke-width="1.5" stroke-linecap="round" stroke-linejoin="round"/>
<path d="M14.6422 8.74182L8.35645 15.0275" stroke="white" stroke-width="1.5" stroke-linecap="round" stroke-linejoin="round"/>
</g>
<defs>
<clipPath id="clip0_198_2145">
<rect width="22" height="22" fill="white" transform="translate(0.5 0.884766)"/>
</clipPath>
</defs>
</svg>
