<svg width="13" height="13" viewBox="0 0 13 13" fill="none" xmlns="http://www.w3.org/2000/svg">
<path d="M10.8627 6.85535L10.8689 6.86187L6.5 11.1429L2.13113 6.86187L2.13731 6.85535C1.62997 6.27577 1.36489 5.52972 1.39519 4.76672C1.42549 4.00371 1.74893 3.28011 2.30069 2.74091C2.85246 2.20171 3.59179 1.88675 4.37054 1.85914C5.14928 1.83154 5.90991 2.09332 6.5 2.59204C7.09009 2.09332 7.85071 1.83154 8.62946 1.85914C8.96754 1.87113 9.29819 1.93727 9.6093 2.05241C10.0148 2.20249 10.3871 2.4358 10.6993 2.74091C11.2511 3.28011 11.5745 4.00371 11.6048 4.76672C11.6351 5.52972 11.37 6.27577 10.8627 6.85535Z" stroke="black" stroke-linejoin="round"/>
</svg>
