<svg width="20" height="21" viewBox="0 0 20 21" fill="none" xmlns="http://www.w3.org/2000/svg">
<g id="interface-edit-select-frame--cursor-frame-select--Streamline-Core" clip-path="url(#clip0_597_12510)">
<g id="Group">
<path id="Vector" d="M14.7861 1.22046H17.5212C17.8839 1.22046 18.2317 1.36454 18.4882 1.621C18.7446 1.87746 18.8887 2.2253 18.8887 2.58799V5.32304" stroke="black" stroke-width="1.5" stroke-linecap="round" stroke-linejoin="round"/>
<path id="Vector_2" d="M1.11084 5.32304V2.58799C1.11084 2.2253 1.25492 1.87746 1.51138 1.621C1.76784 1.36454 2.11568 1.22046 2.47837 1.22046H5.21342" stroke="black" stroke-width="1.5" stroke-linecap="round" stroke-linejoin="round"/>
<path id="Vector_3" d="M14.7861 18.9986H17.5212C17.8839 18.9986 18.2317 18.8545 18.4882 18.598C18.7446 18.3416 18.8887 17.9937 18.8887 17.6311V14.896" stroke="black" stroke-width="1.5" stroke-linecap="round" stroke-linejoin="round"/>
<path id="Vector_4" d="M1.11084 14.896V17.6311C1.11084 17.9937 1.25492 18.3416 1.51138 18.598C1.76784 18.8545 2.11568 18.9986 2.47837 18.9986H5.21342" stroke="black" stroke-width="1.5" stroke-linecap="round" stroke-linejoin="round"/>
</g>
<rect id="Rectangle 34625774" x="4.90007" y="9.69303" width="10.2001" height="0.833333" rx="0.416667" fill="white" stroke="black" stroke-width="0.833333"/>
</g>
<defs>
<clipPath id="clip0_597_12510">
<rect width="20" height="20" fill="white" transform="translate(0 0.109619)"/>
</clipPath>
</defs>
</svg>
