<svg width="17" height="17" viewBox="0 0 17 17" fill="none" xmlns="http://www.w3.org/2000/svg">
<g id="interface-setting-slider-horizontal--adjustment-adjust-controls-fader-horizontal-settings-slider--Streamline-Core">
<g id="Group">
<path id="Vector" d="M4.12935 4.842C4.90517 4.842 5.53409 4.21307 5.53409 3.43725C5.53409 2.66144 4.90517 2.03251 4.12935 2.03251C3.35353 2.03251 2.72461 2.66144 2.72461 3.43725C2.72461 4.21307 3.35353 4.842 4.12935 4.842Z" stroke="black" stroke-width="1.5" stroke-linecap="round" stroke-linejoin="round"/>
<path id="Vector_2" d="M5.53418 3.43724H14.8991" stroke="black" stroke-width="1.5" stroke-linecap="square" stroke-linejoin="round"/>
<path id="Vector_3" d="M8.81099 9.5244C9.58681 9.5244 10.2157 8.89547 10.2157 8.11965C10.2157 7.34384 9.58681 6.71491 8.81099 6.71491C8.03517 6.71491 7.40625 7.34384 7.40625 8.11965C7.40625 8.89547 8.03517 9.5244 8.81099 9.5244Z" stroke="black" stroke-width="1.5" stroke-linecap="round" stroke-linejoin="round"/>
<path id="Vector_4" d="M2.72461 8.11975H7.40708" stroke="black" stroke-width="1.5" stroke-linecap="square" stroke-linejoin="round"/>
<path id="Vector_5" d="M10.2168 8.11975H14.8993" stroke="black" stroke-width="1.5" stroke-linecap="square" stroke-linejoin="round"/>
<path id="Vector_6" d="M12.0896 12.8022H2.72461" stroke="black" stroke-width="1.5" stroke-linecap="square" stroke-linejoin="round"/>
<path id="Vector_7" d="M13.4946 14.2069C14.2704 14.2069 14.8993 13.578 14.8993 12.8022C14.8993 12.0263 14.2704 11.3974 13.4946 11.3974C12.7188 11.3974 12.0898 12.0263 12.0898 12.8022C12.0898 13.578 12.7188 14.2069 13.4946 14.2069Z" stroke="black" stroke-width="1.5" stroke-linecap="round" stroke-linejoin="round"/>
</g>
</g>
</svg>
