<svg width="22" height="21" viewBox="0 0 22 21" fill="none" xmlns="http://www.w3.org/2000/svg">
<path d="M11.4594 1.59171L13.8256 6.36873C13.8794 6.48997 13.9641 6.595 14.0711 6.67333C14.1782 6.75166 14.3039 6.80057 14.4357 6.81517L19.6592 7.58902C19.8104 7.60846 19.953 7.67053 20.0703 7.76798C20.1876 7.86543 20.2747 7.99424 20.3216 8.13936C20.3684 8.28449 20.3729 8.43993 20.3347 8.58755C20.2965 8.73517 20.217 8.86886 20.1057 8.97301L16.3406 12.7083C16.2445 12.7981 16.1724 12.9105 16.1308 13.0352C16.0892 13.16 16.0795 13.2931 16.1025 13.4226L17.0103 18.6758C17.0366 18.8268 17.0199 18.9821 16.9623 19.1241C16.9047 19.266 16.8084 19.389 16.6843 19.4789C16.5603 19.5688 16.4135 19.6222 16.2606 19.6328C16.1078 19.6434 15.955 19.6109 15.8197 19.539L11.1171 17.0537C10.9967 16.9946 10.8644 16.9639 10.7302 16.9639C10.5961 16.9639 10.4637 16.9946 10.3433 17.0537L5.64069 19.539C5.50539 19.6109 5.35263 19.6434 5.19978 19.6328C5.04693 19.6222 4.90013 19.5688 4.77609 19.4789C4.65204 19.389 4.55573 19.266 4.49811 19.1241C4.44048 18.9821 4.42387 18.8268 4.45016 18.6758L5.35794 13.3631C5.38094 13.2336 5.37121 13.1005 5.32963 12.9757C5.28804 12.8509 5.21592 12.7386 5.11983 12.6488L1.31013 8.97301C1.19742 8.86601 1.11815 8.72862 1.08194 8.57748C1.04572 8.42635 1.05411 8.26795 1.10608 8.12148C1.15805 7.97502 1.25138 7.84676 1.37476 7.75226C1.49814 7.65775 1.64627 7.60105 1.80122 7.58902L7.02468 6.81517C7.15653 6.80057 7.28225 6.75166 7.3893 6.67333C7.49636 6.595 7.58101 6.48997 7.63483 6.36873L10.001 1.59171C10.0654 1.45258 10.1683 1.33479 10.2975 1.25224C10.4268 1.16969 10.5769 1.12582 10.7302 1.12582C10.8835 1.12582 11.0337 1.16969 11.1629 1.25224C11.2921 1.33479 11.395 1.45258 11.4594 1.59171Z" fill="#8378FF" stroke="#8378FF" stroke-width="2" stroke-linecap="round" stroke-linejoin="round"/>
</svg>
