<svg width="22" height="22" viewBox="0 0 22 22" fill="none" xmlns="http://www.w3.org/2000/svg">
<path d="M11.7927 1.99796L14.1588 6.77498C14.2127 6.89622 14.2973 7.00125 14.4044 7.07958C14.5114 7.15791 14.6371 7.20682 14.769 7.22142L19.9925 7.99527C20.1437 8.01471 20.2863 8.07678 20.4036 8.17423C20.5209 8.27168 20.608 8.40049 20.6548 8.54561C20.7016 8.69074 20.7062 8.84618 20.6679 8.9938C20.6297 9.14142 20.5503 9.27511 20.4389 9.37926L16.6738 13.1146C16.5778 13.2043 16.5056 13.3167 16.464 13.4415C16.4225 13.5662 16.4127 13.6994 16.4357 13.8289L17.3435 19.0821C17.3698 19.233 17.3532 19.3883 17.2956 19.5303C17.238 19.6723 17.1416 19.7952 17.0176 19.8852C16.8935 19.9751 16.7467 20.0284 16.5939 20.039C16.441 20.0496 16.2883 20.0172 16.153 19.9452L11.4504 17.46C11.33 17.4009 11.1976 17.3701 11.0635 17.3701C10.9293 17.3701 10.797 17.4009 10.6765 17.46L5.97394 19.9452C5.83865 20.0172 5.68588 20.0496 5.53303 20.039C5.38018 20.0284 5.23338 19.9751 5.10934 19.8852C4.98529 19.7952 4.88898 19.6723 4.83136 19.5303C4.77374 19.3883 4.75712 19.233 4.78341 19.0821L5.69119 13.7694C5.71419 13.6399 5.70446 13.5067 5.66288 13.3819C5.62129 13.2572 5.54917 13.1448 5.45308 13.055L1.64338 9.37926C1.53067 9.27226 1.45141 9.13487 1.41519 8.98373C1.37897 8.8326 1.38736 8.6742 1.43933 8.52773C1.4913 8.38127 1.58463 8.25301 1.70801 8.15851C1.83139 8.064 1.97953 8.0073 2.13447 7.99527L7.35793 7.22142C7.48978 7.20682 7.6155 7.15791 7.72255 7.07958C7.82961 7.00125 7.91426 6.89622 7.96808 6.77498L10.3343 1.99796C10.3987 1.85883 10.5016 1.74104 10.6308 1.65849C10.76 1.57594 10.9101 1.53207 11.0635 1.53207C11.2168 1.53207 11.3669 1.57594 11.4961 1.65849C11.6253 1.74104 11.7282 1.85883 11.7927 1.99796V1.99796Z" stroke="black" stroke-width="2" stroke-linecap="round" stroke-linejoin="round"/>
</svg>
