<svg width="141" height="141" viewBox="0 0 141 141" fill="none" xmlns="http://www.w3.org/2000/svg">
<g id="img_home">
<g id="Group 1410104247">
<g id="Group">
<path id="Vector" d="M8.60352 107.612V115.173" stroke="black" stroke-width="0.915385"/>
<path id="Vector_2" d="M12.4444 111.333H4.76367" stroke="black" stroke-width="0.915385"/>
</g>
<g id="Group 1410104115">
<path id="Vector 969" d="M28.6699 112.259V71.7501L76.6329 43.5844V84.093L28.6699 112.259Z" fill="#DCE3ED"/>
<path id="Vector 970" d="M63.5518 91.5056L69.2201 94.8175L82.7369 86.9691L77.0686 83.4808L63.5518 91.5056Z" fill="#8EA8CD"/>
<path id="Vector 966" d="M69.6562 136.676V94.8177L116.747 66.476V108.335L69.6562 136.676Z" fill="#DCE3ED"/>
<path id="Rectangle 34626031" d="M28.6699 71.2722L69.2204 95.2536V137.112L28.6699 113.131V71.2722Z" fill="#F5F5F5"/>
<path id="Vector 967" d="M69.6696 95.5675L81.8579 115.881C82.1033 116.29 82.6319 116.426 83.0442 116.186L129.495 89.1604C129.917 88.9149 130.055 88.3708 129.802 87.9537L117.196 67.2149C116.947 66.8058 116.415 66.6736 116.004 66.9188L69.9707 94.3698C69.5563 94.617 69.4213 95.1537 69.6696 95.5675Z" fill="#F5F5F5"/>
<path id="Vector 968" d="M41.3145 105.927V120.471C41.3145 120.785 41.4837 121.075 41.7574 121.23L50.0419 125.912C50.6233 126.241 51.3431 125.821 51.3431 125.153V109.568C51.3431 109.337 51.2512 109.115 51.0877 108.951L49.9163 107.78C49.7172 107.581 49.4341 107.49 49.1563 107.536L47.5685 107.801C47.2151 107.86 46.8616 107.697 46.6773 107.389L45.9288 106.142C45.7712 105.879 45.4873 105.718 45.181 105.718H43.4614C43.2068 105.718 42.966 105.603 42.8069 105.404C42.3121 104.785 41.3145 105.135 41.3145 105.927Z" fill="#DCE3ED"/>
<path id="Vector 962" d="M68.7766 94.5601L29.9674 72.0257C29.3888 71.6897 29.3885 70.8542 29.9667 70.5178L76.1965 43.6205C76.4664 43.4634 76.7997 43.4627 77.0704 43.6186L115.458 65.7333C116.036 66.0659 116.042 66.8967 115.47 67.238L69.6612 94.5549C69.3891 94.7171 69.0505 94.7191 68.7766 94.5601Z" stroke="black" stroke-width="0.872054" stroke-linejoin="round"/>
<path id="Vector 964" d="M14.9188 72.3036L28.4696 71.2873C28.6012 71.2774 28.7289 71.2378 28.8429 71.1714L76.6326 43.3666L58.9728 44.228C58.8301 44.235 58.6913 44.2769 58.5686 44.35L14.4069 70.685C13.6162 71.1565 14.0008 72.3724 14.9188 72.3036Z" stroke="black" stroke-width="0.872054" stroke-linejoin="round"/>
<path id="Vector 965" d="M76.6326 83.481V43.8025M76.6326 83.481L63.5518 91.3294M76.6326 83.481L82.301 86.9692M41.3145 120.979V105.927C41.3145 105.135 42.3121 104.785 42.8069 105.404V105.404C42.966 105.603 43.2068 105.718 43.4614 105.718H45.181C45.4873 105.718 45.7712 105.879 45.9288 106.142L46.6773 107.389C46.8616 107.697 47.2151 107.86 47.5685 107.801L49.1563 107.536C49.4341 107.49 49.7172 107.581 49.9163 107.78L51.0877 108.951C51.2512 109.115 51.3431 109.336 51.3431 109.568V126.648" stroke="black" stroke-width="0.872054" stroke-linejoin="round"/>
<path id="Vector 963" d="M69.6696 95.5675L81.8579 115.881C82.1033 116.29 82.6319 116.426 83.0442 116.186L129.495 89.1604C129.917 88.9149 130.055 88.3708 129.802 87.9537L117.196 67.2149C116.947 66.8058 116.415 66.6736 116.004 66.9188L69.9707 94.3698C69.5563 94.617 69.4213 95.1537 69.6696 95.5675Z" stroke="black" stroke-width="0.872054" stroke-linejoin="round"/>
<g id="Group 1410104114">
<path id="Vector_3" d="M33.6684 43.4019L23.209 33.3383" stroke="black" stroke-width="0.798265" stroke-miterlimit="10" stroke-linecap="round" stroke-linejoin="round"/>
<path id="Vector_4" d="M24.4224 52.2564L17.9688 49.4129" stroke="black" stroke-width="0.798265" stroke-miterlimit="10" stroke-linecap="round" stroke-linejoin="round"/>
<path id="Vector_5" d="M43.5347 38.7826L40.8728 32.252" stroke="black" stroke-width="0.798265" stroke-miterlimit="10" stroke-linecap="round" stroke-linejoin="round"/>
</g>
<path id="Rectangle 34626030" d="M28.6699 71.2722V113.065C28.6699 113.376 28.8353 113.663 29.1041 113.819L69.2205 137.112M116.747 96.5617V108.264C116.747 108.571 116.586 108.855 116.322 109.012L69.2205 137.112M69.2205 137.112V94.8176" stroke="black" stroke-width="0.872054"/>
<path id="Vector 961" d="M93.1593 66.9119C87.9269 63.133 80.6017 53.8311 93.1593 46.8547C108.856 38.1341 94.9035 26.3614 90.9793 34.6459C86.4339 44.2418 101.444 47.7267 108.42 43.8024C115.397 39.8782 119.757 28.5415 105.804 14.5886" stroke="black" stroke-width="0.872054" stroke-linejoin="round" stroke-dasharray="1.74 1.74"/>
<circle id="Ellipse 4930" cx="10.8159" cy="86.6644" r="2.61616" fill="#DCE3ED" stroke="black" stroke-width="0.872054"/>
<circle id="Ellipse 4932" cx="133.816" cy="104.664" r="2.61616" fill="#DCE3ED" stroke="black" stroke-width="0.872054"/>
<circle id="Ellipse 4933" cx="100.816" cy="129.664" r="2.61616" fill="#DCE3ED" stroke="black" stroke-width="0.872054"/>
<g id="Vector 971">
<path d="M68.7637 13.0712C78.1695 16.5843 96.3331 20.9757 93.741 10.4365C84.5725 -0.761634 72.8999 6.48425 68.7637 13.0712Z" fill="#8378FF"/>
<path d="M102.357 13.0712C100.401 12.1683 97.3876 11.1416 93.741 10.4365M68.7637 13.0712C77.4231 8.91472 86.7465 9.08405 93.741 10.4365M68.7637 13.0712C78.1695 16.5843 96.3331 20.9757 93.741 10.4365M68.7637 13.0712C72.8999 6.48425 84.5725 -0.761634 93.741 10.4365" stroke="black"/>
</g>
</g>
</g>
</g>
</svg>
