<svg width="16" height="17" viewBox="0 0 16 17" fill="none" xmlns="http://www.w3.org/2000/svg">
<path d="M14 13.8463H9M8 5.37723L2 11.0233V13.8463L5 13.8463L11 8.20026M8 5.37723L10.1515 3.35266L10.1528 3.35146C10.4489 3.07276 10.5973 2.93317 10.7683 2.88089C10.9189 2.83483 11.0812 2.83483 11.2318 2.88089C11.4027 2.93313 11.5509 3.07257 11.8466 3.35086L13.1515 4.57874C13.4485 4.85823 13.597 4.99805 13.6527 5.15919C13.7016 5.30094 13.7016 5.45362 13.6527 5.59537C13.5971 5.7564 13.4481 5.8966 13.1515 6.17569L11 8.20026M8 5.37723L11 8.20026" stroke="black" stroke-width="1.6" stroke-linecap="round" stroke-linejoin="round"/>
</svg>
