<svg width="17" height="17" viewBox="0 0 17 17" fill="none" xmlns="http://www.w3.org/2000/svg">
<path d="M8.05957 14.9662C11.6494 14.9662 14.5596 12.056 14.5596 8.46619C14.5596 4.87634 11.6494 1.96619 8.05957 1.96619C4.46972 1.96619 1.55957 4.87634 1.55957 8.46619C1.55957 12.056 4.46972 14.9662 8.05957 14.9662Z" stroke="#717277" stroke-width="1.2" stroke-linecap="round" stroke-linejoin="round"/>
<path d="M6.55957 6.96619C6.55957 6.66952 6.64754 6.37951 6.81237 6.13283C6.97719 5.88616 7.21146 5.6939 7.48555 5.58037C7.75963 5.46684 8.06123 5.43713 8.35221 5.49501C8.64318 5.55289 8.91045 5.69575 9.12023 5.90553C9.33001 6.11531 9.47287 6.38258 9.53075 6.67355C9.58863 6.96452 9.55892 7.26612 9.44539 7.54021C9.33186 7.8143 9.1396 8.04857 8.89293 8.21339C8.64625 8.37821 8.35624 8.46619 8.05957 8.46619V9.46619" stroke="#717277" stroke-width="1.2" stroke-linecap="round" stroke-linejoin="round"/>
<path d="M8.05957 11.9662C7.9215 11.9662 7.80957 11.8543 7.80957 11.7162C7.80957 11.5781 7.9215 11.4662 8.05957 11.4662" stroke="#717277" stroke-width="1.2" stroke-linecap="round" stroke-linejoin="round"/>
<path d="M8.05957 11.9662C8.19764 11.9662 8.30957 11.8543 8.30957 11.7162C8.30957 11.5781 8.19764 11.4662 8.05957 11.4662" stroke="#717277" stroke-width="1.2" stroke-linecap="round" stroke-linejoin="round"/>
</svg>
