<svg width="33" height="33" viewBox="0 0 33 33" fill="none" xmlns="http://www.w3.org/2000/svg">
<path d="M16.5403 26.7183C15.6763 26.7183 14.8523 26.5463 14.0683 26.2023C13.2843 25.8503 12.6003 25.3583 12.0163 24.7263C11.4403 24.0943 11.0283 23.3503 10.7803 22.4943L13.9483 21.6543C14.1163 22.2863 14.4443 22.7783 14.9323 23.1303C15.4283 23.4743 15.9643 23.6463 16.5403 23.6463C17.0363 23.6463 17.4883 23.5263 17.8963 23.2863C18.3123 23.0463 18.6403 22.7223 18.8803 22.3143C19.1283 21.9063 19.2523 21.4543 19.2523 20.9583C19.2523 20.2143 18.9963 19.5783 18.4843 19.0503C17.9803 18.5143 17.3323 18.2463 16.5403 18.2463C16.3003 18.2463 16.0683 18.2823 15.8443 18.3543C15.6203 18.4183 15.4043 18.5103 15.1963 18.6303L13.7323 16.0623L19.2283 11.5023L19.4683 12.1983H11.4523V9.1263H22.2523V12.1983L17.9803 16.3263L17.9563 15.4143C18.9483 15.5663 19.7843 15.9143 20.4643 16.4583C21.1523 16.9943 21.6723 17.6583 22.0243 18.4503C22.3843 19.2343 22.5643 20.0703 22.5643 20.9583C22.5643 22.0463 22.2883 23.0263 21.7363 23.8983C21.1843 24.7623 20.4523 25.4503 19.5403 25.9623C18.6283 26.4663 17.6283 26.7183 16.5403 26.7183Z" fill="url(#paint0_linear_133_3115)"/>
<path fill-rule="evenodd" clip-rule="evenodd" d="M8.3986 16.3496C4.15731 17.798 1.44754 19.3882 1.6822 20.5068C2.03726 22.1995 8.999 22.1717 17.2317 20.4447C24.2547 18.9715 29.934 16.7376 31.2308 15.0622C28.637 16.3578 24.2497 17.805 19.1812 18.9384C10.8237 20.8074 3.77873 21.1157 3.44581 19.627C3.26025 18.7972 5.19894 17.5844 8.3986 16.3496Z" fill="#FEB98B"/>
<path d="M29 7.40625L29.5215 9.38476L31.5 9.90625L29.5215 10.4277L29 12.4062L28.4785 10.4277L26.5 9.90625L28.4785 9.38476L29 7.40625Z" fill="url(#paint1_linear_133_3115)"/>
<path d="M29 7.40625L29.5215 9.38476L31.5 9.90625L29.5215 10.4277L29 12.4062L28.4785 10.4277L26.5 9.90625L28.4785 9.38476L29 7.40625Z" fill="url(#paint2_linear_133_3115)"/>
<defs>
<linearGradient id="paint0_linear_133_3115" x1="16.5" y1="9.1926" x2="16.5" y2="26.4063" gradientUnits="userSpaceOnUse">
<stop stop-color="#FFCBA9"/>
<stop offset="1" stop-color="#FEB98B"/>
</linearGradient>
<linearGradient id="paint1_linear_133_3115" x1="29" y1="8.63968" x2="29" y2="11.3536" gradientUnits="userSpaceOnUse">
<stop stop-color="#C4DAFE"/>
<stop offset="1" stop-color="#A8C6FF"/>
</linearGradient>
<linearGradient id="paint2_linear_133_3115" x1="29" y1="8.73751" x2="29" y2="11.3456" gradientUnits="userSpaceOnUse">
<stop stop-color="#FFCBA9"/>
<stop offset="1" stop-color="#FEB98B"/>
</linearGradient>
</defs>
</svg>
