<svg width="33" height="33" viewBox="0 0 33 33" fill="none" xmlns="http://www.w3.org/2000/svg">
<path d="M10.7156 26.3823V23.5503L17.9636 17.1183C18.5076 16.6383 18.8916 16.1863 19.1156 15.7623C19.3396 15.3383 19.4516 14.9423 19.4516 14.5743C19.4516 14.0463 19.3436 13.5783 19.1276 13.1703C18.9116 12.7543 18.6076 12.4303 18.2156 12.1983C17.8236 11.9583 17.3636 11.8383 16.8356 11.8383C16.2836 11.8383 15.7956 11.9663 15.3716 12.2223C14.9556 12.4703 14.6316 12.8023 14.3996 13.2183C14.1676 13.6263 14.0596 14.0703 14.0756 14.5503H10.7156C10.7156 13.3663 10.9756 12.3423 11.4956 11.4783C12.0156 10.6143 12.7396 9.94629 13.6676 9.4743C14.5956 9.0023 15.6756 8.7663 16.9076 8.7663C18.0356 8.7663 19.0436 9.0143 19.9316 9.51029C20.8276 9.99829 21.5316 10.6823 22.0436 11.5623C22.5556 12.4423 22.8116 13.4623 22.8116 14.6223C22.8116 15.4783 22.6916 16.1903 22.4516 16.7583C22.2116 17.3183 21.8556 17.8383 21.3836 18.3183C20.9116 18.7903 20.3316 19.3263 19.6436 19.9263L14.9636 24.0303L14.6996 23.3103H22.8116V26.3823H10.7156Z" fill="url(#paint0_linear_133_3109)"/>
<path fill-rule="evenodd" clip-rule="evenodd" d="M8.3986 16.3496C4.15731 17.798 1.44754 19.3882 1.6822 20.5068C2.03726 22.1995 8.999 22.1717 17.2317 20.4447C24.2547 18.9715 29.934 16.7376 31.2308 15.0622C28.637 16.3578 24.2497 17.805 19.1812 18.9384C10.8237 20.8074 3.77873 21.1157 3.44581 19.627C3.26025 18.7972 5.19894 17.5844 8.3986 16.3496Z" fill="#A6C4FF"/>
<path d="M29 7.40625L29.5215 9.38476L31.5 9.90625L29.5215 10.4277L29 12.4062L28.4785 10.4277L26.5 9.90625L28.4785 9.38476L29 7.40625Z" fill="url(#paint1_linear_133_3109)"/>
<defs>
<linearGradient id="paint0_linear_133_3109" x1="16.5" y1="8.54696" x2="16.5" y2="26.4589" gradientUnits="userSpaceOnUse">
<stop stop-color="#C4DAFE"/>
<stop offset="1" stop-color="#A8C6FF"/>
</linearGradient>
<linearGradient id="paint1_linear_133_3109" x1="29" y1="8.63968" x2="29" y2="11.3536" gradientUnits="userSpaceOnUse">
<stop stop-color="#C4DAFE"/>
<stop offset="1" stop-color="#A8C6FF"/>
</linearGradient>
</defs>
</svg>
