<svg width="33" height="33" viewBox="0 0 33 33" fill="none" xmlns="http://www.w3.org/2000/svg">
<path d="M15.7816 26.4063V12.6783L12.5416 14.6703V11.0703L15.7816 9.12629H19.1176V26.4063H15.7816Z" fill="url(#paint0_linear_133_3103)"/>
<path fill-rule="evenodd" clip-rule="evenodd" d="M8.3986 16.3496C4.15731 17.798 1.44754 19.3882 1.6822 20.5068C2.03726 22.1995 8.999 22.1717 17.2317 20.4447C24.2547 18.9715 29.934 16.7376 31.2308 15.0622C28.637 16.3578 24.2497 17.805 19.1812 18.9384C10.8237 20.8074 3.77873 21.1157 3.44581 19.627C3.26025 18.7972 5.19894 17.5844 8.3986 16.3496Z" fill="#D9D9D9"/>
<path fill-rule="evenodd" clip-rule="evenodd" d="M8.3986 16.3496C4.15731 17.798 1.44754 19.3882 1.6822 20.5068C2.03726 22.1995 8.999 22.1717 17.2317 20.4447C24.2547 18.9715 29.934 16.7376 31.2308 15.0622C28.637 16.3578 24.2497 17.805 19.1812 18.9384C10.8237 20.8074 3.77873 21.1157 3.44581 19.627C3.26025 18.7972 5.19894 17.5844 8.3986 16.3496Z" fill="#FFC880"/>
<path d="M29 7.40625L29.5215 9.38476L31.5 9.90625L29.5215 10.4277L29 12.4062L28.4785 10.4277L26.5 9.90625L28.4785 9.38476L29 7.40625Z" fill="#D9D9D9"/>
<path d="M29 7.40625L29.5215 9.38476L31.5 9.90625L29.5215 10.4277L29 12.4062L28.4785 10.4277L26.5 9.90625L28.4785 9.38476L29 7.40625Z" fill="url(#paint1_linear_133_3103)"/>
<defs>
<linearGradient id="paint0_linear_133_3103" x1="16.5" y1="9.1926" x2="16.5" y2="26.4063" gradientUnits="userSpaceOnUse">
<stop stop-color="#FFDAA9"/>
<stop offset="1" stop-color="#FECA8B"/>
</linearGradient>
<linearGradient id="paint1_linear_133_3103" x1="29" y1="7.40625" x2="29" y2="12.4062" gradientUnits="userSpaceOnUse">
<stop stop-color="#FFDAA9"/>
<stop offset="1" stop-color="#FECA8B"/>
</linearGradient>
</defs>
</svg>
