<svg width="25" height="25" viewBox="0 0 25 25" fill="none" xmlns="http://www.w3.org/2000/svg">
<path d="M5.39349 7.46362C6.55722 7.46362 7.5006 6.52023 7.5006 5.3565C7.5006 4.19278 6.55722 3.24939 5.39349 3.24939C4.22976 3.24939 3.28638 4.19278 3.28638 5.3565C3.28638 6.52023 4.22976 7.46362 5.39349 7.46362Z" stroke="black" stroke-width="2" stroke-linecap="round" stroke-linejoin="round"/>
<path d="M7.5 5.35648H21.5474" stroke="black" stroke-width="2" stroke-linecap="square" stroke-linejoin="round"/>
<path d="M12.4164 14.4872C13.5802 14.4872 14.5236 13.5438 14.5236 12.3801C14.5236 11.2164 13.5802 10.273 12.4164 10.273C11.2527 10.273 10.3093 11.2164 10.3093 12.3801C10.3093 13.5438 11.2527 14.4872 12.4164 14.4872Z" stroke="black" stroke-width="2" stroke-linecap="round" stroke-linejoin="round"/>
<path d="M3.28662 12.3802H10.3103" stroke="black" stroke-width="2" stroke-linecap="square" stroke-linejoin="round"/>
<path d="M14.5242 12.3802H21.5479" stroke="black" stroke-width="2" stroke-linecap="square" stroke-linejoin="round"/>
<path d="M17.334 19.4038H3.28662" stroke="black" stroke-width="2" stroke-linecap="square" stroke-linejoin="round"/>
<path d="M19.4406 21.511C20.6043 21.511 21.5477 20.5676 21.5477 19.4039C21.5477 18.2401 20.6043 17.2968 19.4406 17.2968C18.2769 17.2968 17.3335 18.2401 17.3335 19.4039C17.3335 20.5676 18.2769 21.511 19.4406 21.511Z" stroke="black" stroke-width="2" stroke-linecap="round" stroke-linejoin="round"/>
</svg>
