<svg width="26" height="21" viewBox="0 0 26 21" fill="none" xmlns="http://www.w3.org/2000/svg">
<path d="M6.3395 2.83908C6.88771 1.96194 7.84912 1.42908 8.88349 1.42908H21.4165C23.0734 1.42908 24.4165 2.77222 24.4165 4.42908V16.4291C24.4165 18.0859 23.0734 19.4291 21.4165 19.4291H8.88349C7.84912 19.4291 6.88771 18.8962 6.3395 18.0191L2.5895 12.0191C1.98149 11.0463 1.98149 9.81189 2.5895 8.83908L6.3395 2.83908Z" stroke="#4C4D50" stroke-width="2"/>
<path fill-rule="evenodd" clip-rule="evenodd" d="M10.7449 12.9039L17.1088 6.53997L18.523 7.95418L12.1591 14.3181L10.7449 12.9039Z" fill="#4C4D50"/>
<path fill-rule="evenodd" clip-rule="evenodd" d="M17.1089 14.3182L10.7449 7.95428L12.1591 6.54006L18.5231 12.904L17.1089 14.3182Z" fill="#4C4D50"/>
</svg>
