<svg width="30" height="24" viewBox="0 0 30 24" fill="none" xmlns="http://www.w3.org/2000/svg">
<path d="M22.5 20L24.5 22" stroke="currentColor" stroke-width="2" stroke-linecap="round"/>
<circle cx="15" cy="12.5" r="9.5" stroke="currentColor" stroke-width="2" stroke-linecap="round"/>
<circle cx="12" cy="14.5" r="2.5" stroke="currentColor" stroke-width="2" stroke-linecap="round"/>
<circle cx="16.5" cy="7" r="1" stroke="currentColor" stroke-width="2" stroke-linecap="round"/>
<path d="M22.4093 2.99683C23.917 2.77267 25.3052 2.75284 26.4523 3.00171C27.5952 3.24974 28.6321 3.79949 29.1847 4.82007C29.7371 5.84061 29.63 7.00873 29.213 8.10132C28.7944 9.19801 28.0198 10.3499 27.008 11.49C24.9785 13.7767 21.8437 16.1856 18.0949 18.2156C14.346 20.2454 10.6151 21.5539 7.59097 22.0037C6.08342 22.2278 4.69511 22.2476 3.548 21.9988C2.40499 21.7508 1.36822 21.201 0.81558 20.1804C0.263003 19.1598 0.369276 17.9918 0.786284 16.8992C1.20484 15.8025 1.97957 14.6506 2.99136 13.5105C4.02183 12.3494 5.33812 11.1574 6.87417 9.99878C6.63104 10.7895 6.5002 11.6293 6.50015 12.4998C6.50015 12.6263 6.50114 12.7486 6.50308 12.866C5.73439 13.5324 5.05905 14.1957 4.48843 14.8386C3.56658 15.8773 2.95683 16.8225 2.65542 17.6121C2.35252 18.4057 2.40384 18.9133 2.57437 19.2283C2.74491 19.5432 3.14176 19.8636 3.97183 20.0437C4.79767 20.2228 5.92251 20.2293 7.29605 20.0251C10.0351 19.6178 13.5436 18.4056 17.1427 16.4568C20.7416 14.5081 23.6737 12.2329 25.5119 10.1619C26.4335 9.12334 27.0435 8.17788 27.3449 7.38843C27.6476 6.59505 27.5963 6.08716 27.4259 5.77222C27.2554 5.45728 26.8577 5.13692 26.0275 4.95679C25.2016 4.7777 24.0767 4.77113 22.7033 4.97534C21.8506 5.10216 20.9228 5.30599 19.9416 5.58667C19.1635 5.02952 18.289 4.59812 17.3459 4.32788C19.1557 3.67484 20.8737 3.22518 22.4093 2.99683Z" fill="currentColor"/>
</svg>
