<svg width="25" height="24" viewBox="0 0 25 24" fill="none" xmlns="http://www.w3.org/2000/svg">
<path d="M7.5 6H8.5C8.5 8.20914 10.2909 10 12.5 10V11V12C9.18629 12 6.5 9.31371 6.5 6H7.5ZM12.5 11V10C14.7091 10 16.5 8.20914 16.5 6H17.5H18.5C18.5 9.31371 15.8137 12 12.5 12V11ZM17.5 6H16.5C16.5 3.79086 14.7091 2 12.5 2V1V0C15.8137 0 18.5 2.68629 18.5 6H17.5ZM12.5 1V2H8.5V1V0H12.5V1ZM7.5 2H8.5V6H7.5H6.5V2H7.5ZM8.5 1V2H7.5H6.5C6.5 0.895431 7.39543 0 8.5 0V1Z" fill="currentColor"/>
<path d="M19.5 23H5.5C3.29086 23 1.5 21.2091 1.5 19C1.5 16.7909 3.29086 15 5.5 15H11.2778H19.5C21.7091 15 23.5 16.7909 23.5 19C23.5 21.2091 21.7091 23 19.5 23Z" stroke="currentColor" stroke-width="2" stroke-linecap="round"/>
</svg>
